<?xml version="1.0" encoding="UTF-8"?>
<svg width="512px" height="512px" viewBox="0 0 512 512" version="1.1" xmlns="http://www.w3.org/2000/svg" xmlns:xlink="http://www.w3.org/1999/xlink">
    <title>shui</title>
    <defs>
        <path d="M333.495379,0 L178.504621,0 C127.104203,0 101.406022,0 73.7408203,8.74659905 C43.5328203,19.741941 19.7418599,43.5328203 8.74668019,73.7407391 C0,101.406022 0,127.10826 0,178.504621 L0,333.495379 C0,384.895797 0,410.589921 8.74668019,438.259017 C19.7418599,468.467017 43.5328203,492.258384 73.7408203,503.248938 C101.406022,512 127.104203,512 178.504621,512 L333.495379,512 C384.895797,512 410.589921,512 438.259017,503.248938 C468.467017,492.258384 492.258384,468.467017 503.252995,438.259017 C512,410.589921 512,384.895797 512,333.495379 L512,178.504621 C512,127.10826 512,101.406022 503.252995,73.7407391 C492.258384,43.5328203 468.467017,19.741941 438.259017,8.74659905 C410.589921,0 384.895797,0 333.495379,0 Z" id="path-1"></path>
        <linearGradient x1="50%" y1="0%" x2="50%" y2="100%" id="linearGradient-3">
            <stop stop-color="#57B8EA" offset="0%"></stop>
            <stop stop-color="#2765D9" offset="100%"></stop>
        </linearGradient>
        <linearGradient x1="50%" y1="0%" x2="50%" y2="100%" id="linearGradient-4">
            <stop stop-color="#FFFFFF" offset="0%"></stop>
            <stop stop-color="#FFFFFF" stop-opacity="0.211565778" offset="99.6339598%"></stop>
        </linearGradient>
        <linearGradient x1="50%" y1="0%" x2="50%" y2="99.6339598%" id="linearGradient-5">
            <stop stop-color="#FFFFFF" offset="0%"></stop>
            <stop stop-color="#FFFFFF" stop-opacity="0.211565778" offset="100%"></stop>
        </linearGradient>
    </defs>
    <g id="Xcore" stroke="none" stroke-width="1" fill="none" fill-rule="evenodd">
        <g id="shui">
            <mask id="mask-2" fill="white">
                <use xlink:href="#path-1"></use>
            </mask>
            <g id="Path"></g>
            <g id="Group" mask="url(#mask-2)">
                <rect id="Rectangle" fill="url(#linearGradient-3)" fill-rule="nonzero" x="0.754492891" y="0.754499376" width="512.226155" height="512.226149"></rect>
                <path d="M481.408522,479.899444 L513.735593,512.226515 L512.226515,513.735593 L479.899443,481.408522 L479.899443,512.980648 L477.765303,512.980648 L477.765303,479.899444 L351.842904,479.899444 L351.842904,512.980648 L349.708764,512.980648 L349.708764,479.899444 L257.935047,479.899444 L257.935047,512.980648 L255.800906,512.980648 L255.800906,479.899444 L164.026377,479.899444 L164.026377,512.980648 L161.892237,512.980648 L161.892237,479.899444 L35.9701628,479.899444 L35.9701628,512.980648 L33.8358601,512.980648 L33.8358601,481.408522 L1.50917249,513.735593 L0,512.226515 L32.3267006,479.899444 L0.754591984,479.899444 L0.754591984,477.765303 L33.8358601,477.765303 L33.8358601,351.842907 L0.754591984,351.842907 L0.754591984,349.708766 L33.8358601,349.708766 L33.8358601,257.93505 L0.754591984,257.93505 L0.754591984,255.80091 L33.8358601,255.80091 L33.8358601,164.026381 L0.754591984,164.026381 L0.754591984,161.892241 L33.8358601,161.892241 L33.8358601,35.9700877 L0.754591984,35.9700877 L0.754591984,33.8358662 L32.3267006,33.8358662 L0,1.50916111 L1.50918467,0 L33.8358601,32.3267067 L33.8358601,0.754580373 L35.9701628,0.754580373 L35.9701628,33.8358662 L161.892237,33.8358662 L161.892237,0.754580373 L164.026377,0.754580373 L164.026377,33.8358662 L255.800906,33.8358662 L255.800906,0.754580373 L257.935047,0.754580373 L257.935047,33.8358662 L349.708764,33.8358662 L349.708764,0.754580373 L351.842904,0.754580373 L351.842904,33.8358662 L477.765303,33.8358662 L477.765303,0.754580373 L479.899443,0.754580373 L479.899443,32.3267067 L512.226515,0 L513.735593,1.50916111 L481.408522,33.8358662 L512.980648,33.8358662 L512.980648,35.9700877 L479.899443,35.9700877 L479.899443,161.892241 L512.980648,161.892241 L512.980648,164.026381 L479.899443,164.026381 L479.899443,255.80091 L512.980648,255.80091 L512.980648,257.93505 L479.899443,257.93505 L479.899443,349.708766 L512.980648,349.708766 L512.980648,351.842907 L479.899443,351.842907 L479.899443,477.765303 L512.980648,477.765303 L512.980648,479.899444 L481.408522,479.899444 Z M477.765303,476.256225 L477.765303,351.842907 L458.725264,351.842907 C447.833761,374.949907 433.09285,395.883802 415.328101,413.818212 L477.765303,476.256225 Z M413.81821,412.309133 C431.177076,394.783856 445.620879,374.365433 456.362205,351.842907 L356.518693,351.842907 C356.00322,352.382733 355.483688,352.919312 354.960097,353.451021 L413.81821,412.309133 Z M353.451019,354.960099 L412.309132,413.818212 C394.783854,431.177077 374.365432,445.62088 351.842904,456.362206 L351.842904,356.518695 C352.383543,356.003222 352.91931,355.48369 353.451019,354.960099 Z M353.451019,351.941942 C353.483489,351.90866 353.51596,351.876189 353.548431,351.842907 L353.351983,351.842907 L353.451019,351.941942 Z M351.842904,353.351985 L351.94194,353.451021 C351.908658,353.483491 351.876187,353.515962 351.842904,353.548433 L351.842904,353.351985 Z M349.708764,348.199688 L349.708764,276.982394 C345.871533,294.776368 337.049229,310.715449 324.776095,323.266207 L349.708764,348.199688 Z M323.266205,324.775286 L348.199686,349.708766 L276.982391,349.708766 C294.776365,345.871535 310.716258,337.049231 323.266205,324.775286 Z M323.266205,321.757129 C339.395241,305.255492 349.423021,282.766247 349.70227,257.93505 L259.444125,257.93505 L323.266205,321.757129 Z M257.935047,259.444128 L321.757127,323.266207 C305.255489,339.395243 282.766244,349.423024 257.935047,349.702272 L257.935047,259.444128 Z M255.800906,254.291019 L255.800906,164.032876 C230.969708,164.312124 208.479652,174.339905 191.978014,190.46894 L255.800906,254.291019 Z M190.468936,191.978018 L254.291016,255.80091 L164.032871,255.80091 C164.31212,230.969712 174.3399,208.479656 190.468936,191.978018 Z M190.468936,188.959862 C203.019694,176.685917 218.958776,167.863613 236.75275,164.026381 L165.536267,164.026381 L190.468936,188.959862 Z M164.026377,165.53546 L188.959858,190.46894 C176.685912,203.019698 167.863608,218.95878 164.026377,236.752753 L164.026377,165.53546 Z M161.892237,160.383163 L161.892237,160.186715 C161.859766,160.219185 161.826483,160.251656 161.793201,160.284127 L161.892237,160.383163 Z M160.284122,161.793205 L160.383158,161.892241 L160.18671,161.892241 C160.219181,161.85977 160.251652,161.826488 160.284122,161.793205 Z M160.284122,158.775049 C160.815831,158.251458 161.35241,157.731926 161.892237,157.217264 L161.892237,57.3728607 C139.369709,68.1146733 118.952099,82.5580706 101.426009,99.9169359 L160.284122,158.775049 Z M99.9169306,101.426014 L158.775044,160.284127 C158.251453,160.815836 157.731921,161.352415 157.21726,161.892241 L57.3728549,161.892241 C68.1147488,139.369714 82.5580652,118.952104 99.9169306,101.426014 Z M99.9169306,98.4078576 C117.85134,80.6427832 138.786048,65.9012231 161.892237,55.0103698 L161.892237,35.9700877 L37.4793223,35.9700877 L99.9169306,98.4078576 Z M35.9701628,37.4793284 L98.4078523,99.9169359 C80.6427777,117.851345 65.9012174,138.785241 55.010364,161.892241 L35.9701628,161.892241 L35.9701628,37.4793284 Z M413.81821,415.328102 L476.256225,477.765303 L351.842904,477.765303 L351.842904,458.725265 C374.949905,447.833762 395.883801,433.092851 413.81821,415.328102 Z M161.892237,477.765303 L37.4793223,477.765303 L99.9169306,415.328102 C117.85134,433.092851 138.786048,447.833762 161.892237,458.725265 L161.892237,477.765303 Z M35.9701628,476.256225 L98.4078523,413.818212 C80.6427777,395.883802 65.9012174,374.949907 55.010364,351.842907 L35.9701628,351.842907 L35.9701628,476.256225 Z M161.892237,456.362206 C139.369709,445.62088 118.952099,431.177077 101.426009,413.818212 L160.284122,354.960099 C160.815831,355.48369 161.35241,356.003222 161.892237,356.518695 L161.892237,456.362206 Z M99.9169306,412.309133 L158.775044,353.451021 C158.251453,352.919312 157.731921,352.382733 157.21726,351.842907 L57.3729361,351.842907 C68.1147488,374.365433 82.5580652,394.783856 99.9169306,412.309133 Z M161.892237,353.548433 L161.793201,353.451021 L161.892237,353.351985 L161.892237,353.548433 Z M160.284122,351.941942 L160.383158,351.842907 L160.18671,351.842907 L160.284122,351.941942 Z M236.75275,349.708766 L165.535455,349.708766 L190.468936,324.775286 C203.019694,337.049231 218.958776,345.871535 236.75275,349.708766 Z M164.026377,348.199688 L188.959858,323.266207 C176.685912,310.715449 167.863608,294.776368 164.026377,276.982394 L164.026377,348.199688 Z M255.800906,349.702272 C230.969708,349.423024 208.479652,339.395243 191.978014,323.266207 L255.800906,259.444128 L255.800906,349.702272 Z M190.468936,321.757129 L254.291016,257.93505 L164.032871,257.93505 C164.31212,282.766247 174.3399,305.255492 190.468936,321.757129 Z M349.70227,255.80091 L259.444125,255.80091 L323.266205,191.978018 C339.395241,208.479656 349.423021,230.969712 349.70227,255.80091 Z M257.935047,254.291019 L321.757127,190.46894 C305.255489,174.339905 282.766244,164.312124 257.935047,164.032876 L257.935047,254.291019 Z M349.708764,236.752753 C345.871533,218.95878 337.049229,203.019698 324.776095,190.46894 L349.708764,165.53546 L349.708764,236.752753 Z M323.266205,188.959862 L348.199686,164.026381 L276.983203,164.026381 C294.776365,167.863613 310.716258,176.685917 323.266205,188.959862 Z M353.548431,161.892241 L353.351983,161.892241 L353.451019,161.793205 L353.548431,161.892241 Z M351.842904,160.383163 L351.94194,160.284127 L351.842904,160.186715 L351.842904,160.383163 Z M356.518693,161.892241 C356.00322,161.352415 355.483688,160.815836 354.960097,160.284127 L413.81821,101.426014 C431.177076,118.952104 445.620879,139.369714 456.362205,161.892241 L356.518693,161.892241 Z M353.451019,158.775049 L412.309132,99.9169359 C394.783854,82.5580706 374.365432,68.1146733 351.842904,57.3728607 L351.842904,157.217264 C352.383543,157.731926 352.91931,158.251458 353.451019,158.775049 Z M458.725264,161.892241 C447.833761,138.786052 433.09285,117.851345 415.328101,99.9169359 L477.765303,37.4792472 L477.765303,161.892241 L458.725264,161.892241 Z M413.81821,98.4078576 L476.256225,35.9700877 L351.842904,35.9700877 L351.842904,55.0102886 C374.949905,65.9012231 395.883801,80.6427832 413.81821,98.4078576 Z M54.0182201,349.708766 L35.9701628,349.708766 L35.9701628,287.847109 C38.9974113,309.632549 45.1714006,330.410585 54.0182201,349.708766 Z M155.225179,349.708766 L56.3690215,349.708766 C43.4177363,321.786353 36.127646,290.703723 35.9726793,257.93505 L119.211053,257.93505 C119.479749,293.290019 133.076065,325.473407 155.225179,349.708766 Z M161.892237,349.708766 L158.13537,349.708766 C135.546278,325.69502 121.61876,293.440196 121.345193,257.93505 L161.892237,257.93505 L161.892237,349.708766 Z M164.026377,351.842907 L164.026377,355.599773 C188.040124,378.188865 220.294948,392.116383 255.800906,392.389949 L255.800906,351.842907 L164.026377,351.842907 Z M257.935047,351.842907 L257.935047,392.389949 C293.440193,392.116383 325.695017,378.188865 349.708764,355.599773 L349.708764,351.842907 L257.935047,351.842907 Z M355.599771,349.708766 L351.842904,349.708766 L351.842904,257.93505 L392.389948,257.93505 C392.116382,293.440196 378.188863,325.69502 355.599771,349.708766 Z M457.366363,349.708766 L358.510774,349.708766 C380.659076,325.473407 394.256204,293.290019 394.524088,257.93505 L477.762868,257.93505 C477.60782,290.703723 470.317324,321.786353 457.366363,349.708766 Z M477.765303,349.708766 L459.717246,349.708766 C468.563903,330.410585 474.738217,309.631738 477.765303,287.847109 L477.765303,349.708766 Z M121.345193,255.80091 L161.892237,255.80091 L161.892237,164.026381 L158.13537,164.026381 C135.546278,188.040128 121.61876,220.294951 121.345193,255.80091 Z M351.842904,255.80091 L392.389948,255.80091 C392.116382,220.294951 378.188863,188.040128 355.599771,164.026381 L351.842904,164.026381 L351.842904,255.80091 Z M394.524088,255.80091 L477.762868,255.80091 C477.60782,223.031424 470.317324,191.949607 457.366363,164.026381 L358.510774,164.026381 C380.659076,188.261741 394.256204,220.445129 394.524088,255.80091 Z M35.9726793,255.80091 L119.211053,255.80091 C119.479749,220.445129 133.076065,188.261741 155.224367,164.026381 L56.3690215,164.026381 C43.4176551,191.949607 36.127646,223.031424 35.9726793,255.80091 Z M459.717246,164.026381 L477.765303,164.026381 L477.765303,225.888039 C474.738217,204.10341 468.563903,183.324562 459.717246,164.026381 Z M349.708764,161.892241 L349.708764,158.135375 C325.695017,135.546283 293.440193,121.618765 257.935047,121.345198 L257.935047,161.892241 L349.708764,161.892241 Z M255.800906,161.892241 L255.800906,121.345198 C220.294948,121.618765 188.040124,135.546283 164.026377,158.135375 L164.026377,161.892241 L255.800906,161.892241 Z M35.9701628,164.026381 L54.0181389,164.026381 C45.1714006,183.324562 38.9974113,204.102598 35.9701628,225.888039 L35.9701628,164.026381 Z M164.026377,54.0181447 L164.026377,35.9700877 L225.888035,35.9700877 C204.102594,38.9974173 183.324558,45.1714065 164.026377,54.0181447 Z M349.708764,54.0181447 C330.410583,45.1714065 309.632547,38.9974173 287.847106,35.9700877 L349.708764,35.9700877 L349.708764,54.0181447 Z M164.026377,477.765303 L225.888035,477.765303 C204.102594,474.738217 183.324558,468.563903 164.026377,459.717246 L164.026377,477.765303 Z M287.847106,477.765303 L349.708764,477.765303 L349.708764,459.717246 C330.410583,468.563903 309.632547,474.738217 287.847106,477.765303 Z M164.026377,457.366364 L164.026377,358.510776 C188.261736,380.659077 220.445125,394.256206 255.800906,394.524089 L255.800906,477.762868 C223.031421,477.60782 191.949602,470.317324 164.026377,457.366364 Z M164.026377,56.3690273 L164.026377,155.224372 C188.261736,133.07607 220.445125,119.478942 255.800906,119.211058 L255.800906,35.9726854 C223.031421,36.127652 191.949602,43.4176611 164.026377,56.3690273 Z M257.935047,477.762868 C290.70372,477.60782 321.78635,470.317324 349.708764,457.366364 L349.708764,358.510776 C325.473405,380.659077 293.290016,394.256206 257.935047,394.524089 L257.935047,477.762868 Z M257.935047,119.211058 C293.290016,119.478942 325.473405,133.07607 349.708764,155.224372 L349.708764,56.3690273 C321.78635,43.4176611 290.70372,36.127652 257.935047,35.9726854 L257.935047,119.211058 Z" id="Shape" fill="#FFFFFF" opacity="0.3"></path>
                <path d="M186.138961,39.1714605 L327.59618,39.1714605 C375.017282,39.1714605 395.774212,39.3222872 418.072691,46.3082076 C440.957267,54.7423237 458.992336,72.7775547 467.426615,95.6616435 C474.412698,117.956875 474.563687,138.720299 474.563687,186.138965 L474.563687,327.596183 C474.563687,375.017284 474.412698,395.774214 467.426615,418.073504 C458.992336,440.95808 440.956455,458.993149 418.073503,467.423368 C395.774212,474.412698 375.018906,474.563687 327.59618,474.563687 L186.138961,474.563687 C138.715424,474.563687 117.95687,474.412698 95.66245,467.423368 C72.7789292,458.993149 54.7427238,440.95808 46.3082017,418.072692 C39.3222812,395.774214 39.1714545,375.017284 39.1714545,327.596183 L39.1714545,186.138965 C39.1714545,138.721111 39.3223624,117.957687 46.3081205,95.6624553 C54.7422367,72.7777983 72.7777927,54.7422425 95.66245,46.3081264 C117.95687,39.3223684 138.717047,39.1714605 186.138961,39.1714605 Z" id="Path" stroke="#FFFFFF" stroke-width="10.5167"></path>
            </g>
            <g id="header" transform="translate(145.789831, 114.549153)" fill-rule="nonzero" stroke="#FFFFFF" stroke-width="4">
                <path d="M0,244.461961 C0,271.107675 13.3480254,284.637288 39.837038,284.637288 L182.318576,284.637288 C208.807589,284.637288 222.155932,271.107675 222.155932,244.461961 L222.155932,40.1755848 C222.155932,13.5295541 208.807589,0 182.318576,0 L39.837038,0 C13.3480254,0 0,13.5295541 0,40.1755848 L0,244.461961 Z M18.3147153,244.048448 L18.3147153,40.588781 C18.3147153,26.129661 25.9716293,18.2804123 40.8716989,18.2804123 L181.284445,18.2804123 C196.183985,18.2804123 203.841429,26.129661 203.841429,40.588781 L203.841429,244.048448 C203.841429,258.507673 196.183985,266.357028 181.284445,266.357028 L40.8716989,266.357028 C25.9716293,266.357028 18.3147153,258.507673 18.3147153,244.048448 Z" id="Shape" fill="url(#linearGradient-4)"></path>
                <path d="M49.4661153,107.60678 L174.424675,107.60678 C183.445772,107.60678 187.444068,103.710684 187.444068,94.6876204 L187.444068,49.2643505 C187.444068,40.3438687 183.445772,36.4474576 174.424675,36.4474576 L49.4661153,36.4474576 C40.4453338,36.4474576 36.4474576,40.3438687 36.4474576,49.2643505 L36.4474576,94.6876204 C36.4474576,103.710684 40.4453338,107.60678 49.4661153,107.60678 Z" id="Path" fill="url(#linearGradient-5)"></path>
            </g>
        </g>
    </g>
</svg>